<svg width="24" height="24" viewBox="0 0 24 24" fill="none" xmlns="http://www.w3.org/2000/svg">
<path d="M21.7246 19.9894L16.2708 15.5603C18.5184 12.4863 18.287 8.09021 15.4775 5.31373C13.9901 3.82633 12.0069 3 9.89147 3C7.77606 3 5.79287 3.82633 4.30547 5.31373C1.23151 8.38769 1.23151 13.4118 4.30547 16.4857C5.79287 17.9731 7.77606 18.7995 9.89147 18.7995C11.9077 18.7995 13.7918 18.0393 15.2792 16.6841L20.7991 21.1463C20.9313 21.2454 21.0965 21.3115 21.2618 21.3115C21.4932 21.3115 21.6915 21.2124 21.8237 21.0471C22.0881 20.7166 22.0551 20.2538 21.7246 19.9894ZM9.89147 17.3121C8.1727 17.3121 6.58615 16.651 5.36317 15.428C2.85112 12.916 2.85112 8.85043 5.36317 6.37144C6.58615 5.14846 8.1727 4.4874 9.89147 4.4874C11.6102 4.4874 13.1968 5.14846 14.4198 6.37144C16.9318 8.88349 16.9318 12.949 14.4198 15.428C13.2299 16.651 11.6102 17.3121 9.89147 17.3121Z" fill="#262626"/>
</svg>
