<svg width="24" height="24" viewBox="0 0 24 24" fill="none" xmlns="http://www.w3.org/2000/svg">
<path d="M12 14.8519C15.2711 14.8519 17.9259 12.197 17.9259 8.92593C17.9259 5.65482 15.2711 3 12 3C8.72889 3 6.07407 5.65482 6.07407 8.92593C6.07407 12.197 8.72889 14.8519 12 14.8519ZM12 4.77778C14.2874 4.77778 16.1481 6.63852 16.1481 8.92593C16.1481 11.2133 14.2874 13.0741 12 13.0741C9.71259 13.0741 7.85185 11.2133 7.85185 8.92593C7.85185 6.63852 9.71259 4.77778 12 4.77778ZM20 19.5926V21.963H18.2222V19.5926C18.2222 18.7748 17.5585 18.1111 16.7407 18.1111H7.25926C6.44148 18.1111 5.77778 18.7748 5.77778 19.5926V21.963H4V19.5926C4 17.7911 5.45778 16.3333 7.25926 16.3333H16.7407C18.5422 16.3333 20 17.7911 20 19.5926Z" fill="#262626"/>
</svg>
