<svg width="24" height="24" viewBox="0 0 24 24" fill="none" xmlns="http://www.w3.org/2000/svg">
<g clip-path="url(#clip0_1460_642)">
<path d="M12.2678 19.0171C9.56608 19.0797 6.86363 18.9277 4.18595 18.5624C3.75246 18.4277 3.36155 18.1823 3.05177 17.8505C2.74199 17.5187 2.52403 17.1118 2.41937 16.6701C1.86407 13.2615 1.86021 9.78578 2.40794 6.37593C2.51195 5.9338 2.72944 5.52643 3.03895 5.19401C3.34846 4.86159 3.7393 4.61562 4.17289 4.48036C6.71854 4.10096 9.29258 3.94581 11.8654 4.01667C15.7022 4.01667 19.1823 4.21423 19.7913 4.46648C20.2253 4.60157 20.6166 4.84756 20.9264 5.18014C21.2362 5.51273 21.4539 5.9204 21.5579 6.36287C22.1429 9.77334 22.1474 13.2582 21.571 16.6701C21.4669 17.1126 21.2493 17.5203 20.9394 17.8528C20.6296 18.1854 20.2384 18.4314 19.8044 18.5665C17.3125 18.9582 14.7887 19.1091 12.2678 19.0171ZM9.72163 8.1319V14.9076L15.6247 11.5222L9.72163 8.1319Z" fill="#262626"/>
</g>
<defs>
<clipPath id="clip0_1460_642">
<rect width="24" height="24" fill="white"/>
</clipPath>
</defs>
</svg>
