<svg width="28" height="24" viewBox="0 0 28 24" fill="none" xmlns="http://www.w3.org/2000/svg">
<g clip-path="url(#clip0_1472_20)">
<path d="M27.4515 8.2858C26.5179 6.54015 24.597 5.75573 22.7414 6.28106C21.6249 6.59687 20.8267 7.31281 20.3167 8.35274C20.2972 8.3926 20.2778 8.43195 20.2589 8.47181C20.2497 8.46976 20.241 8.46772 20.2318 8.46568C20.2318 8.43399 20.2318 8.40282 20.2318 8.37114C20.239 8.01598 20.2109 7.66082 20.0933 7.30361C19.8363 6.52329 19.1357 6 18.2879 6C17.8091 6 17.4692 6.12009 17.1054 6.4032L16.7967 6.62549L16.1728 7.07468L16.159 7.08439C16.1156 7.04759 16.0711 7.01335 16.0271 6.9786C15.8703 6.85545 15.7088 6.7466 15.5437 6.65002C15.5407 6.64849 15.5376 6.64695 15.5345 6.64491C14.722 6.17119 13.8175 6.01737 12.8368 6.1855C11.5235 6.41035 10.5531 7.14366 9.98943 8.33179C9.97564 8.36092 9.94446 8.44319 9.93373 8.47181C9.92658 8.46772 9.92658 8.46772 9.91942 8.46363V6C9.61383 6 9.18509 6 9.18509 6V8.46925C9.15545 8.40793 9.12479 8.34661 9.09208 8.2858C8.15691 6.54015 6.2365 5.75573 4.38098 6.28106C3.2644 6.59687 2.46619 7.31281 1.95619 8.35274C1.93677 8.3926 1.91735 8.43195 1.89844 8.47181C1.88924 8.46976 1.88056 8.46772 1.87136 8.46568C1.87136 8.43399 1.87136 8.40282 1.87136 8.37114C1.87136 8.0354 1.85041 7.66082 1.73287 7.30361C1.48247 6.54475 0.816611 6.0276 0 6V6.79617C1.13498 6.79617 1.1498 8.27251 1.1498 8.67979V18.0642H1.88516V12.5963C1.91224 12.655 1.94341 12.7215 1.96028 12.7567C2.3461 13.5488 2.91793 14.1615 3.70797 14.5616C4.48216 14.9536 5.30337 15.0568 6.1532 14.926C7.14407 14.7737 7.96119 14.3005 8.60406 13.534C8.83759 13.2555 9.03025 12.9575 9.18355 12.6417V18.0642C9.18355 18.0642 9.76714 18.0642 9.92402 18.0642C9.92402 17.6324 9.93322 14.6051 9.93322 12.3448C9.93322 11.9534 9.94651 11.6013 9.97104 11.2819C10.04 9.8812 10.4105 8.80091 10.9113 8.16468C11.2409 7.74667 11.6109 7.41962 12.034 7.20703C12.1572 7.1452 12.2855 7.09205 12.4183 7.05015C12.6846 6.96225 12.9631 6.90553 13.2477 6.89531C14.2105 6.86005 14.9438 7.07825 15.5386 7.54737C15.5386 7.54737 13.1986 9.13154 12.4296 9.71308C12.1321 9.93793 10.8617 10.9998 11.0764 12.6632C11.0774 12.6714 11.0789 12.6796 11.0805 12.6877C11.2925 14.2187 12.7489 15.0073 13.8757 14.9975C14.3168 14.994 14.7067 14.926 15.0342 14.8284C15.742 14.6173 16.2591 14.1268 16.368 14.0154C16.7921 13.582 16.9971 13.2335 17.1422 12.9545C17.3016 12.6474 17.4314 12.3218 17.5531 11.8405C17.7253 11.1577 17.7406 10.3105 17.5735 9.56693C17.4105 8.84025 17.1422 8.19381 16.7073 7.63424C16.7165 7.6276 16.8739 7.51313 16.877 7.51109C16.8933 7.49933 17.4887 7.06343 17.6404 6.96072C17.8689 6.8069 18.109 6.7604 18.2915 6.7604C19.6125 6.7604 19.5098 8.67928 19.5098 8.67928V18.0637H20.239C20.239 17.8848 20.242 14.4804 20.239 12.7802C20.239 12.7378 20.2369 12.6376 20.239 12.5952C20.2686 12.6479 20.3039 12.7204 20.3207 12.7557C20.7066 13.5478 21.2784 14.1605 22.0684 14.5606C22.8426 14.9526 23.6638 15.0558 24.5137 14.925C25.5045 14.7727 26.3217 14.2995 26.9645 13.5335C27.4832 12.9156 27.8016 12.2023 27.9273 11.4056C28.099 10.3156 27.9774 9.269 27.4515 8.2858ZM8.2816 12.677C7.60297 13.7777 6.59166 14.2893 5.3233 14.2111C3.86383 14.1211 2.90617 13.3153 2.38085 11.9488C2.2071 11.4971 2.14782 11.0208 2.1514 10.5951C2.15038 9.64818 2.37829 8.83208 2.92866 8.13402C3.61445 7.26375 4.51896 6.85596 5.6105 6.88458C7.00916 6.92137 8.19013 7.79471 8.63523 9.15198C9.03587 10.3743 8.96279 11.5717 8.2816 12.677ZM16.6485 12.2544C16.3067 13.071 15.8457 13.7036 14.9898 14.0378C14.2263 14.3358 13.4588 14.3215 12.7408 13.9034C12.1955 13.5861 11.8884 13.0986 11.8214 12.4547C11.7576 11.8415 11.9788 11.3371 12.3463 10.8756C12.5762 10.5864 12.8486 10.3411 13.1511 10.129C14.1139 9.45501 15.0307 8.8285 15.9939 8.15549C16.0936 8.08599 16.0956 8.0865 16.1651 8.18461C17.0415 9.42128 17.0911 11.1961 16.6485 12.2544ZM26.6426 12.6765C25.9639 13.7772 24.9526 14.2888 23.6843 14.2106C22.2248 14.1206 21.2672 13.3148 20.7418 11.9483C20.5681 11.4965 20.5088 11.0203 20.5124 10.5946C20.5114 9.64767 20.7393 8.83157 21.2896 8.13351C21.9754 7.26324 22.8799 6.85545 23.9715 6.88407C25.3701 6.92086 26.5511 7.79419 26.9962 9.15147C27.3968 10.3738 27.3238 11.5711 26.6426 12.6765Z" fill="#262626"/>
</g>
<defs>
<clipPath id="clip0_1472_20">
<rect width="28" height="24" fill="white"/>
</clipPath>
</defs>
</svg>
