<svg width="24" height="24" viewBox="0 0 24 24" fill="none" xmlns="http://www.w3.org/2000/svg">
<path d="M12 3.00024C13.6272 3.00024 15.1323 3.3431 16.5151 4.0288C17.8979 4.7145 18.9911 5.64691 19.7946 6.82603C20.5982 8.00515 21 9.29129 21 10.6845C21 12.0776 20.5982 13.3656 19.7946 14.5483C18.9911 15.7311 17.8996 16.6653 16.5201 17.351C15.1406 18.0367 13.6339 18.3796 12 18.3796C11.4844 18.3796 10.952 18.3397 10.4029 18.2599C8.01897 20.0521 6.75 20.9591 6.59598 20.9809C6.52232 21.0099 6.45201 21.0063 6.38504 20.97C6.35826 20.9482 6.33817 20.9192 6.32478 20.8829C6.31138 20.8467 6.30469 20.814 6.30469 20.785V20.7414C6.34487 20.4585 6.64955 19.2793 7.21875 17.2041C5.92634 16.5075 4.90011 15.5842 4.14007 14.4341C3.38002 13.284 3 12.0341 3 10.6845C3 9.29129 3.40179 8.00515 4.20536 6.82603C5.00893 5.64691 6.10212 4.7145 7.48493 4.0288C8.86775 3.3431 10.3728 3.00024 12 3.00024Z" fill="#4C4C4C"/>
</svg>
