<svg width="24" height="24" viewBox="0 0 24 24" fill="none" xmlns="http://www.w3.org/2000/svg">
<path d="M17.4278 6.52342C17.3221 5.36513 16.8466 4.28813 16.0135 3.45497C15.0747 2.51615 13.827 2 12.498 2C11.169 2 9.92128 2.51615 8.9784 3.45904C8.1493 4.29219 7.66973 5.3692 7.56406 6.52342H3V22.8086H22V6.52342H17.4278ZM10.2586 4.73519C11.4535 3.54032 13.5384 3.54032 14.7373 4.73519C15.2291 5.22695 15.538 5.84877 15.6314 6.52342H9.36449C9.45797 5.84877 9.76684 5.22695 10.2586 4.73519ZM20.1874 21H4.80856V8.33198H7.64128H17.3587H20.1914V21H20.1874Z" fill="#262626"/>
</svg>
