<svg width="24" height="24" viewBox="0 0 24 24" fill="none" xmlns="http://www.w3.org/2000/svg">
<g clip-path="url(#clip0_1460_636)">
<path d="M16.9929 5.93914C16.7742 5.93914 16.5604 6.004 16.3786 6.12549C16.1967 6.24699 16.055 6.41968 15.9714 6.62172C15.8877 6.82376 15.8658 7.04609 15.9084 7.26058C15.9511 7.47506 16.0564 7.67208 16.211 7.82671C16.3657 7.98135 16.5627 8.08666 16.7772 8.12932C16.9917 8.17199 17.214 8.15009 17.416 8.0664C17.618 7.98271 17.7908 7.84099 17.9123 7.65916C18.0338 7.47732 18.0986 7.26354 18.0986 7.04485C18.0986 6.7516 17.9821 6.47037 17.7747 6.26301C17.5674 6.05564 17.2861 5.93914 16.9929 5.93914Z" fill="#262626"/>
<path d="M12.078 7.35686C11.1595 7.35686 10.2616 7.62922 9.49789 8.13951C8.73419 8.6498 8.13897 9.3751 7.78748 10.2237C7.43599 11.0723 7.34404 12.006 7.52323 12.9069C7.70242 13.8077 8.14472 14.6352 8.79419 15.2847C9.44367 15.9341 10.2712 16.3764 11.172 16.5556C12.0728 16.7348 13.0066 16.6428 13.8552 16.2913C14.7038 15.9399 15.429 15.3446 15.9393 14.5809C16.4496 13.8172 16.722 12.9194 16.722 12.0009C16.7206 10.7696 16.2309 9.58918 15.3603 8.71855C14.4897 7.84793 13.3093 7.35822 12.078 7.35686ZM12.078 14.9751C11.4898 14.9751 10.9148 14.8007 10.4257 14.4739C9.93656 14.1472 9.55531 13.6827 9.33017 13.1393C9.10503 12.5958 9.04608 11.9978 9.16077 11.4209C9.27546 10.844 9.55867 10.314 9.97454 9.89802C10.3904 9.48203 10.9203 9.19868 11.4972 9.08382C12.0741 8.96896 12.6721 9.02775 13.2156 9.25274C13.7591 9.47772 14.2237 9.8588 14.5506 10.3478C14.8775 10.8368 15.0521 11.4118 15.0523 12C15.0516 12.7887 14.738 13.5449 14.1804 14.1027C13.6228 14.6605 12.8667 14.9742 12.078 14.9751Z" fill="#262626"/>
<path d="M15.7646 21.4286H8.23542C6.73379 21.4267 5.29418 20.8294 4.23237 19.7676C3.17055 18.7058 2.57326 17.2662 2.57144 15.7646V8.23457C2.57326 6.73294 3.17055 5.29333 4.23237 4.23152C5.29418 3.16971 6.73379 2.57239 8.23542 2.57057H15.7637C17.2653 2.57239 18.705 3.16971 19.7668 4.23152C20.8286 5.29333 21.4259 6.73294 21.4277 8.23457V15.7637C21.4262 17.2653 20.8291 18.705 19.7674 19.767C18.7057 20.829 17.2662 21.4265 15.7646 21.4286ZM8.23631 4.34571C7.20474 4.34617 6.2155 4.75592 5.48575 5.48502C4.756 6.21413 4.34537 7.20301 4.34401 8.23457V15.7637C4.34537 16.7949 4.75564 17.7835 5.48481 18.5126C6.21397 19.2418 7.20254 19.6521 8.23374 19.6534H15.762C16.7932 19.6521 17.7818 19.2418 18.5109 18.5126C19.2401 17.7835 19.6504 16.7949 19.6517 15.7637V8.23457C19.6504 7.20337 19.2401 6.21479 18.5109 5.48562C17.7818 4.75646 16.7932 4.34621 15.762 4.34485L8.23631 4.34571Z" fill="#262626"/>
</g>
<defs>
<clipPath id="clip0_1460_636">
<rect width="24" height="24" fill="white"/>
</clipPath>
</defs>
</svg>
