<svg width="28" height="24" viewBox="0 0 28 24" fill="none" xmlns="http://www.w3.org/2000/svg">
<g clip-path="url(#clip0_1472_11)">
<path fill-rule="evenodd" clip-rule="evenodd" d="M2.17704 9.56164C3.05765 8.6798 4.02986 8.6798 4.02986 8.6798C6.98775 8.6798 7.09589 12.096 7.09589 12.096C7.09589 15.4691 4.02986 15.589 4.02986 15.589C2.7171 15.589 2.20176 14.6217 2.20176 14.6217V15.3493H0V6H2.17704V9.56164ZM2.1521 12.1729C2.1521 12.9692 2.77515 13.6112 3.54784 13.6112C4.32053 13.6112 4.95218 12.9605 4.94379 12.1729C4.94379 11.3768 4.32053 10.7345 3.54784 10.7345C2.78354 10.7345 2.1521 11.3768 2.1521 12.1729ZM7.67126 8.08688V6C10.8558 6 10.9239 9.06045 10.9306 9.35861L10.9306 9.35867C10.9309 9.3739 10.9311 9.3819 10.9315 9.3819V15.2055H8.7202V9.87683C8.7202 8.04565 7.67126 8.08688 7.67126 8.08688ZM16.1649 8.68493C16.1649 8.68493 12.6579 8.68493 12.6579 12.1585C12.6579 12.1585 12.5445 15.589 16.1649 15.589C16.1649 15.589 19.7531 15.5804 19.7531 12.1585C19.7531 12.1585 19.8662 8.68493 16.1649 8.68493ZM16.1649 13.6116C15.4118 13.6116 14.8042 12.9668 14.8042 12.1672C14.8042 11.3675 15.4118 10.7227 16.1649 10.7227C16.9182 10.7227 17.5257 11.3675 17.5257 12.1672C17.5257 12.9582 16.9182 13.6116 16.1649 13.6116ZM25.919 9.53357V8.91457V8.90608H28V15.181C28 18.6915 24.8744 18.6575 24.8744 18.6575H24.042V16.6903H24.5561C26.0658 16.6903 25.919 15.0622 25.919 15.0622V14.5449C25.258 15.4438 24.042 15.3929 24.042 15.3929C21.0632 15.3929 21.0959 12.0944 21.0959 12.0944C21.0959 8.54994 24.1236 8.68562 24.1236 8.68562C25.3069 8.68562 25.919 9.53357 25.919 9.53357ZM23.2667 12.1282C23.2667 12.9168 23.8788 13.5528 24.6377 13.5528C25.3967 13.5528 26.0169 12.9084 26.0087 12.1282C26.0087 11.3398 25.3967 10.7037 24.6377 10.7037C23.8788 10.7037 23.2667 11.3398 23.2667 12.1282Z" fill="#262626"/>
</g>
<defs>
<clipPath id="clip0_1472_11">
<rect width="28" height="24" fill="white"/>
</clipPath>
</defs>
</svg>
