<svg width="24" height="24" viewBox="0 0 24 24" fill="none" xmlns="http://www.w3.org/2000/svg">
<g clip-path="url(#clip0_1460_624)">
<path d="M10.4365 22.0003C8.097 21.6256 5.96687 20.4315 4.42649 18.6312C2.77756 16.7035 1.91383 14.2261 2.00679 11.691C2.09976 9.15593 3.14261 6.7485 4.92831 4.94668C5.85409 4.01299 6.95561 3.27189 8.1693 2.76614C9.38299 2.26039 10.6848 2 11.9997 2C13.3145 2 14.6164 2.26039 15.8301 2.76614C17.0437 3.27189 18.1453 4.01299 19.071 4.94668C20.8568 6.74837 21.8999 9.15565 21.9932 11.6907C22.0865 14.2257 21.2232 16.7031 19.5747 18.6312C18.0338 20.4318 15.903 21.626 13.5629 22.0003V14.9685H15.8938L16.3374 12.0594H13.5619V10.1739C13.5443 9.78325 13.6672 9.39914 13.9083 9.09122C14.0727 8.92056 14.2727 8.78838 14.4942 8.70413C14.7156 8.61989 14.953 8.58568 15.1892 8.60395H16.4538V6.12668C15.7134 6.00785 14.9654 5.94253 14.2156 5.93122C13.7136 5.90799 13.212 5.98556 12.7405 6.15934C12.2689 6.33312 11.837 6.5996 11.4701 6.94304C11.1151 7.33471 10.8409 7.79273 10.6636 8.29074C10.4862 8.78875 10.409 9.31692 10.4365 9.84486V12.0621H7.8974V14.9712H10.4365V22.0003Z" fill="#262626"/>
</g>
<defs>
<clipPath id="clip0_1460_624">
<rect width="24" height="24" fill="white"/>
</clipPath>
</defs>
</svg>
