<svg width="24" height="24" viewBox="0 0 24 24" fill="none" xmlns="http://www.w3.org/2000/svg">
<path d="M3.64286 3C3.47545 3 3.32645 3.06362 3.19587 3.19085C3.06529 3.31808 3 3.46875 3 3.64286V20.3571C3 20.5312 3.06529 20.6819 3.19587 20.8092C3.32645 20.9364 3.47545 21 3.64286 21H20.3571C20.5246 21 20.6735 20.9364 20.8041 20.8092C20.9347 20.6819 21 20.5312 21 20.3571V3.64286C21 3.46875 20.9347 3.31808 20.8041 3.19085C20.6735 3.06362 20.5246 3 20.3571 3H3.64286ZM7.0279 7.5H10.4933L13.5067 12V7.5H16.9721V16.5H13.5067L10.4933 12V16.5H7.0279V7.5Z" fill="#4C4C4C"/>
</svg>
