<svg width="26" height="26" viewBox="0 0 26 26" fill="none" xmlns="http://www.w3.org/2000/svg">
<path d="M6.80367 10.5293C6.38565 10.5293 6.04688 10.8681 6.04688 11.2861C6.04688 11.7041 6.38565 12.0444 6.80367 12.0444C7.2217 12.0444 7.56047 11.7057 7.56047 11.2861C7.56203 10.8681 7.2217 10.5293 6.80367 10.5293Z" fill="#393939"/>
<path d="M14.2846 10.4497C13.8339 10.4497 13.4688 10.8149 13.4688 11.2656C13.4688 11.7162 13.8339 12.0814 14.2846 12.0814C14.7353 12.0814 15.1005 11.7162 15.1005 11.2656C15.1005 10.8149 14.7353 10.4497 14.2846 10.4497Z" fill="#393939"/>
<path d="M21.0567 3H4.94328C3.31779 3 2 4.31779 2 5.94328V15.5066C2 17.1321 3.31779 18.4499 4.94328 18.4499H10.634L12.5703 23.0109C12.5703 23.0109 12.704 23.4056 13.0256 23.4056C13.3489 23.4056 13.481 23.0109 13.481 23.0109L15.4172 18.4499H21.0567C22.6822 18.4499 24 17.1321 24 15.5066V5.94328C23.9984 4.31779 22.6807 3 21.0567 3ZM8.91064 11.4538C8.90132 13.202 7.09402 13.2517 7.09402 13.2517C6.39472 13.2517 6 12.7887 6 12.7887V13.1041H4.68376V7.67444C4.6791 7.67288 4.67754 7.67288 4.68376 7.67133V7.67444C4.76612 7.68687 6 7.67133 6 7.67133V9.74747C6.30925 9.21911 7.20435 9.22844 7.20435 9.22844C9.15462 9.41026 8.91064 11.4538 8.91064 11.4538ZM11.2292 9.39627V13.1134H9.94095V9.43357C9.94095 8.93318 9.31935 8.79332 9.31935 8.79332V7.49573C11.3768 7.57964 11.2292 9.39627 11.2292 9.39627ZM14.2828 13.2549C13.0894 13.2549 12.1228 12.3644 12.1228 11.2673C12.1228 10.1686 13.0894 9.27972 14.2828 9.27972C15.4763 9.27972 16.4429 10.1702 16.4429 11.2673C16.4429 12.3644 15.4763 13.2549 14.2828 13.2549ZM21.3411 13.2549C21.3411 13.2549 21.3598 15.143 19.4406 15.143H18.8563V13.92H19.209C19.209 13.92 20.0155 13.9946 20.0062 12.7514C20.0062 12.7514 19.8493 13.2549 18.7179 13.2549C18.7179 13.2549 17.1142 13.1399 17.1142 11.575V10.9814C17.1142 10.9814 17.1515 9.35897 18.9122 9.22999C18.9122 9.22999 19.6068 9.1554 20.0342 9.73038V9.33256H21.3411V13.2549Z" fill="#393939"/>
<path d="M19.2972 10.4685C18.8574 10.4685 18.5 10.8259 18.5 11.2657C18.5 11.7055 18.8574 12.0629 19.2972 12.0629C19.737 12.0629 20.0944 11.7055 20.0944 11.2657C20.0944 10.8259 19.737 10.4685 19.2972 10.4685Z" fill="#393939"/>
</svg>
