<svg width="78" height="24" viewBox="0 0 78 24" fill="none" xmlns="http://www.w3.org/2000/svg">
<g id="Logo" clip-path="url(#clip0_5318_47921)">
<path id="Vector" d="M0.244141 24V0H5.2755V10.0627H15.7487V0H20.78V24H15.7487V13.9373H5.2755V24H0.244141Z" fill="black"/>
<path id="Vector_2" d="M24.2812 24V0H35.538C37.4287 0 38.9711 0.360715 40.1776 1.08215C41.3841 1.80358 42.2859 2.78621 42.8767 4.02384C43.4738 5.26769 43.7723 6.67945 43.7723 8.27157C43.7723 9.8637 43.4302 11.3128 42.7461 12.5566C42.062 13.8005 41.0918 14.7644 39.8418 15.4423C38.5855 16.1265 37.1053 16.4685 35.3888 16.4685H29.3126V23.9938H24.2812V24ZM29.3126 12.4882H34.344C35.7868 12.4882 36.869 12.1088 37.6028 11.3501C38.3367 10.5913 38.7036 9.56517 38.7036 8.27779C38.7036 6.88469 38.3554 5.82742 37.6588 5.09355C36.9623 4.35968 35.9174 3.99274 34.5305 3.99274H29.3126V12.4882Z" fill="black"/>
<path id="Vector_3" d="M46.5645 24V0H51.5958V24H46.5645Z" fill="black"/>
<path id="Vector_4" d="M54.3519 24L63.034 11.9658L54.5758 0H60.5027L66.0565 8.01037L71.6041 0H77.531L69.0728 11.9596L77.7549 23.9938H71.7533L66.0503 15.9834L60.3473 23.9938H54.3457L54.3519 24Z" fill="black"/>
</g>
<defs>
<clipPath id="clip0_5318_47921">
<rect width="77.5102" height="24" fill="white" transform="translate(0.244141)"/>
</clipPath>
</defs>
</svg>
