<svg width="30" height="14" viewBox="0 0 30 14" fill="none" xmlns="http://www.w3.org/2000/svg">
<path id="Vector" d="M29.4123 2.98618C28.412 1.11584 26.3539 0.275394 24.3658 0.838247C23.1695 1.17662 22.3143 1.94369 21.7678 3.0579C21.747 3.10061 21.7262 3.14277 21.706 3.18547C21.6961 3.18328 21.6868 3.18109 21.677 3.1789C21.677 3.14496 21.677 3.11156 21.677 3.07761C21.6846 2.69708 21.6545 2.31656 21.5286 1.93384C21.2532 1.09777 20.5025 0.537109 19.5942 0.537109C19.0812 0.537109 18.7171 0.665777 18.3272 0.969104L17.9965 1.20728L17.328 1.68855L17.3132 1.69895C17.2667 1.65953 17.219 1.62285 17.1719 1.58561C17.0039 1.45366 16.8308 1.33704 16.654 1.23356C16.6507 1.23192 16.6474 1.23027 16.6441 1.22808C15.7736 0.720529 14.8045 0.555725 13.7538 0.73586C12.3466 0.97677 11.3069 1.76246 10.703 3.03545C10.6882 3.06666 10.6548 3.15481 10.6433 3.18547C10.6356 3.18109 10.6356 3.18109 10.628 3.17671V0.537109C10.3005 0.537109 9.84117 0.537109 9.84117 0.537109V3.18274C9.80941 3.11703 9.77656 3.05133 9.74152 2.98618C8.73955 1.11584 6.68196 0.275394 4.69391 0.838247C3.49757 1.17662 2.64234 1.94369 2.09592 3.0579C2.07511 3.10061 2.0543 3.14277 2.03405 3.18547C2.02419 3.18328 2.01488 3.18109 2.00503 3.1789C2.00503 3.14496 2.00503 3.11156 2.00503 3.07761C2.00503 2.71789 1.98258 2.31656 1.85665 1.93384C1.58836 1.12077 0.874941 0.566676 0 0.537109V1.39015C1.21605 1.39015 1.23193 2.97194 1.23193 3.40832V13.463H2.01981V7.60453C2.04883 7.66749 2.08223 7.73867 2.1003 7.77645C2.51367 8.62511 3.12635 9.28159 3.97282 9.7103C4.80232 10.1302 5.68219 10.2408 6.59272 10.1007C7.65436 9.93752 8.52985 9.43051 9.21863 8.60923C9.46885 8.31083 9.67527 7.99163 9.83952 7.65326V13.463C9.83952 13.463 10.4648 13.463 10.6329 13.463C10.6329 13.0004 10.6427 9.75684 10.6427 7.33515C10.6427 6.91574 10.657 6.5385 10.6833 6.1963C10.7572 4.69554 11.1541 3.53808 11.6907 2.85641C12.0438 2.40854 12.4403 2.05813 12.8936 1.83036C13.0256 1.76411 13.163 1.70716 13.3053 1.66227C13.5906 1.56809 13.889 1.50732 14.194 1.49637C15.2255 1.45859 16.0112 1.69238 16.6485 2.19501C16.6485 2.19501 14.1414 3.89233 13.3174 4.51541C12.9987 4.75632 11.6376 5.89407 11.8675 7.67625C11.8686 7.68501 11.8703 7.69377 11.8719 7.70253C12.0991 9.34291 13.6596 10.1877 14.8669 10.1773C15.3394 10.1735 15.7571 10.1007 16.1081 9.9961C16.8664 9.76998 17.4205 9.24436 17.5371 9.125C17.9916 8.6607 18.2111 8.28729 18.3666 7.98834C18.5375 7.65928 18.6765 7.31051 18.8068 6.79474C18.9914 6.06325 19.0078 5.15546 18.8287 4.35882C18.6541 3.58024 18.3666 2.88762 17.9007 2.28809C17.9105 2.28097 18.0792 2.15832 18.0825 2.15613C18.1 2.14354 18.7379 1.6765 18.9005 1.56645C19.1452 1.40165 19.4025 1.35182 19.598 1.35182C21.0134 1.35182 20.9033 3.40722 20.9033 3.40777V13.4625H21.6846C21.6846 13.2708 21.6879 9.62324 21.6846 7.80163C21.6846 7.75619 21.6824 7.64888 21.6846 7.60343C21.7164 7.65983 21.7542 7.73757 21.7722 7.77535C22.1856 8.62401 22.7983 9.28049 23.6447 9.7092C24.4742 10.1292 25.3541 10.2398 26.2646 10.0996C27.3263 9.93642 28.2018 9.42942 28.8906 8.60868C29.4463 7.94673 29.7874 7.18239 29.9221 6.3288C30.1061 5.16093 29.9752 4.03906 29.4118 2.98563L29.4123 2.98618ZM8.87315 7.69104C8.14604 8.8704 7.06249 9.41847 5.70354 9.3347C4.13982 9.23833 3.11376 8.37489 2.55091 6.91082C2.36475 6.42681 2.30124 5.91652 2.30507 5.46043C2.30397 4.44587 2.54817 3.57148 3.13785 2.82356C3.87263 1.89113 4.84174 1.45421 6.01125 1.48487C7.50982 1.52429 8.77514 2.46001 9.25203 3.91423C9.68129 5.2239 9.60299 6.50674 8.87315 7.69104ZM17.8377 7.23823C17.4714 8.11317 16.9776 8.79101 16.0605 9.14909C15.2425 9.46829 14.4201 9.45296 13.6508 9.00509C13.0666 8.66508 12.7376 8.14274 12.6658 7.45286C12.5974 6.79584 12.8345 6.25543 13.2281 5.76102C13.4745 5.45112 13.7664 5.18831 14.0905 4.96109C15.122 4.23891 16.1043 3.56765 17.1364 2.84656C17.2431 2.7721 17.2453 2.77264 17.3198 2.87777C18.2588 4.20277 18.3119 6.10432 17.8377 7.23823ZM28.5456 7.69049C27.8185 8.86985 26.735 9.41792 25.376 9.33415C23.8123 9.23779 22.7862 8.37434 22.2234 6.91027C22.0372 6.42626 21.9737 5.91597 21.9775 5.45988C21.9764 4.44532 22.2206 3.57093 22.8103 2.82301C23.5451 1.89058 24.5142 1.45366 25.6837 1.48432C27.1823 1.52374 28.4476 2.45946 28.9245 3.91368C29.3538 5.22335 29.2755 6.5062 28.5456 7.69049Z" fill="#393939"/>
</svg>
